<?xml version="1.0" ?><!DOCTYPE svg  PUBLIC '-//W3C//DTD SVG 1.1//EN'  'http://www.w3.org/Graphics/SVG/1.1/DTD/svg11.dtd'><svg enable-background="new 0 0 128 128" id="Слой_1" version="1.1" viewBox="0 0 128 128" xml:space="preserve" xmlns="http://www.w3.org/2000/svg" xmlns:xlink="http://www.w3.org/1999/xlink"><path d="M99,124H29c-5.5,0-10-4.5-10-10V44h90v70C109,119.5,104.5,124,99,124z" fill="#E5E3E3"/><path d="M19,114L19,114c0,5.5,4.5,10,10,10h70c5.5,0,10-4.5,10-10v0H19z" fill="#FDB915"/><g opacity="0.1"><path d="M34,114V44H19v70c0,5.5,4.5,10,10,10h15C38.5,124,34,119.5,34,114z"/></g><line fill="#E5E3E3" x1="62.8" x2="20" y1="114" y2="114"/><polyline fill="#E5E3E3" points="19,37 19,32 109,32 109,37 "/><polyline fill="#E5E3E3" points="4,49 19,49 19,55 "/><polyline fill="#E5E3E3" points="109,55 109,49 124,49 "/><path d="M109,39.5c1.4,0,2.5-1.1,2.5-2.5v-5c0-1.4-1.1-2.5-2.5-2.5H77.8V22c0-1.4-1.1-2.5-2.5-2.5h-25  c-1.4,0-2.5,1.1-2.5,2.5v7.5H19c-1.4,0-2.5,1.1-2.5,2.5v5c0,1.4,1.1,2.5,2.5,2.5s2.5-1.1,2.5-2.5v-2.5h28.8h25h31.2V37  C106.5,38.4,107.6,39.5,109,39.5z M52.8,29.5v-5h20v5H52.8z" fill="#62355C"/><path d="M124,46.5h-12.5V44c0-1.4-1.1-2.5-2.5-2.5H19c-1.4,0-2.5,1.1-2.5,2.5v2.5H4c-1.4,0-2.5,1.1-2.5,2.5  s1.1,2.5,2.5,2.5h12.5V55c0,0,0,0.1,0,0.1V114c0,6.9,5.6,12.5,12.5,12.5h70c6.9,0,12.5-5.6,12.5-12.5V51.5H124  c1.4,0,2.5-1.1,2.5-2.5S125.4,46.5,124,46.5z M99,121.5H29c-3.3,0-6-2.1-7.1-5h40.8c1.4,0,2.5-1.1,2.5-2.5s-1.1-2.5-2.5-2.5H21.5  v-65h85V49c0,0,0,0,0,0v6c0,0,0,0,0,0v59C106.5,118.1,103.1,121.5,99,121.5z" fill="#62355C"/></svg>