<svg id="Layer_1" data-name="Layer 1" xmlns="http://www.w3.org/2000/svg" viewBox="0 0 48 48"><defs><style>.cls-1{fill:#fc6;}.cls-2{fill:#ffba55;}.cls-3{fill:#c6c3d8;}.cls-4{fill:#dad7e5;}</style></defs><title>recipe, book, cook, cooking, kitchen, fork, spoon</title><rect class="cls-1" x="12.25" y="0.5" width="31.33" height="47"/><rect class="cls-2" x="6.38" y="0.5" width="5.88" height="47" transform="translate(18.63 48) rotate(180)"/><rect class="cls-3" x="4.42" y="5.4" width="5.88" height="1.96"/><rect class="cls-3" x="4.42" y="11.27" width="5.88" height="1.96"/><rect class="cls-3" x="4.42" y="17.15" width="5.88" height="1.96"/><rect class="cls-3" x="4.42" y="23.02" width="5.88" height="1.96"/><rect class="cls-3" x="4.42" y="28.9" width="5.88" height="1.96"/><rect class="cls-3" x="4.42" y="34.77" width="5.88" height="1.96"/><rect class="cls-3" x="4.42" y="40.65" width="5.88" height="1.96"/><rect class="cls-2" x="18.13" y="32.81" width="19.58" height="1.96"/><rect class="cls-2" x="18.13" y="36.73" width="19.58" height="1.96"/><rect class="cls-2" x="18.13" y="40.65" width="19.58" height="1.96"/><rect class="cls-4" x="21.06" y="10.29" width="1.96" height="19.58"/><rect class="cls-4" x="31.83" y="13.23" width="1.96" height="16.65"/><path class="cls-4" d="M24,10.29v4.9a2,2,0,0,1-2,2h0a2,2,0,0,1-2-2v-4.9h-2v4.9A3.92,3.92,0,0,0,22,19.1h0A3.92,3.92,0,0,0,26,15.19v-4.9Z"/><ellipse class="cls-4" cx="32.81" cy="15.19" rx="3.92" ry="4.9"/></svg>