<?xml version="1.0" ?><svg id="Layer_1" style="enable-background:new 0 0 300 300;" version="1.1" viewBox="0 0 300 300" xml:space="preserve" xmlns="http://www.w3.org/2000/svg" xmlns:xlink="http://www.w3.org/1999/xlink"><g id="XMLID_127_"><g id="XMLID_125_"><path d="M75,125.5c-6.7-6.7-17.5-6.7-24.2,0l-1.8,1.8c-6.7,6.7-6.7,17.5,0,24.2l3.7,3.7    c-13.9,17.4-12.8,43,3.3,59.1s41.7,17.2,59.1,3.3l3.7,3.7c6.7,6.7,17.5,6.7,24.2,0l1.8-1.8c6.7-6.7,6.7-17.5,0-24.2L75,125.5z     M63.1,207.2c-12.2-12.2-13.3-31.4-3.3-44.9l48.2,48.2C94.5,220.6,75.3,219.5,63.1,207.2z M137.8,212.5l-1.8,1.8    c-2.8,2.8-7.3,2.8-10.1,0l-69.9-69.9c-2.8-2.8-2.8-7.3,0-10.1l1.8-1.8c2.8-2.8,7.3-2.8,10.1,0l69.9,69.9    C140.6,205.2,140.6,209.7,137.8,212.5z" id="XMLID_308_"/><path d="M253.4,56l-39-39c-7.1-7.1-16.9-10.8-26.9-10.2s-19.3,5.5-25.4,13.4l-75.2,96.8c-1.5,2-1.4,4.8,0.4,6.6    c2.1,2.1,5.6,1.9,7.5-0.5L170,26.4c5.9-7.6,15.8-11.3,25.6-9c4.6,1.1,8.8,3.6,12.1,6.9l38.7,38.7c5.1,5.1,7.7,12.1,7.3,19.2    c-0.4,7.1-3.9,13.7-9.6,18.1l-96.8,75.2c-2.4,1.8-2.6,5.4-0.5,7.5l0,0c1.8,1.8,4.6,2,6.6,0.4l96.8-75.2    c7.9-6.1,12.8-15.4,13.4-25.4C264.2,72.9,260.5,63.1,253.4,56z" id="XMLID_320_"/><path d="M147.5,149.9c1.8,1.8,4.6,2,6.6,0.4l70.9-55c2.4-1.8,2.6-5.4,0.5-7.5c-1.8-1.8-4.6-2-6.6-0.4l-70.9,55    C145.6,144.3,145.4,147.8,147.5,149.9L147.5,149.9z" id="XMLID_321_"/></g><circle cx="41.2" cy="252.6" id="XMLID_126_" r="4.8"/><circle cx="71.7" cy="267.6" id="XMLID_129_" r="4.8"/><circle cx="90.7" cy="247.8" id="XMLID_132_" r="4.8"/><circle cx="62.1" cy="238.1" id="XMLID_131_" r="4.8"/><circle cx="41.2" cy="285.8" id="XMLID_130_" r="4.8"/><circle cx="85.9" cy="288.4" id="XMLID_134_" r="4.8"/></g></svg>